<svg width="13" height="14" viewBox="0 0 13 14" fill="none" xmlns="http://www.w3.org/2000/svg">
<path d="M6.50234 10.104C6.37434 10.104 6.27834 10.068 6.21434 9.996C6.15034 9.924 6.11834 9.828 6.11834 9.708V7.428H3.87434C3.75434 7.428 3.65834 7.396 3.58634 7.332C3.52234 7.268 3.49034 7.176 3.49034 7.056C3.49034 6.936 3.52234 6.844 3.58634 6.78C3.65834 6.716 3.75434 6.684 3.87434 6.684H6.11834V4.476C6.11834 4.348 6.15034 4.252 6.21434 4.188C6.27834 4.116 6.37434 4.08 6.50234 4.08C6.63034 4.08 6.72634 4.116 6.79034 4.188C6.85434 4.252 6.88634 4.348 6.88634 4.476V6.684H9.13034C9.25034 6.684 9.34234 6.716 9.40634 6.78C9.47834 6.844 9.51434 6.936 9.51434 7.056C9.51434 7.176 9.47834 7.268 9.40634 7.332C9.34234 7.396 9.25034 7.428 9.13034 7.428H6.88634V9.708C6.88634 9.828 6.85434 9.924 6.79034 9.996C6.72634 10.068 6.63034 10.104 6.50234 10.104Z" fill="white"/>
<circle cx="6.5" cy="7" r="6" stroke="white"/>
</svg>
