<svg width="24" height="24" viewBox="0 0 24 24" fill="none" xmlns="http://www.w3.org/2000/svg">
<path d="M20.6445 13.527L20.25 13.299C19.7805 13.0283 19.5 12.5422 19.5 12C19.5 11.4578 19.7805 10.9717 20.25 10.701L20.6445 10.473C21.7215 9.8505 22.0897 8.4765 21.468 7.3995L20.718 6.1005C20.0977 5.02575 18.7185 4.65675 17.6445 5.277L17.25 5.50425C16.7805 5.77575 16.2187 5.77575 15.75 5.50425C15.2805 5.23275 15 4.7475 15 4.20525V3.75C15 2.5095 13.9905 1.5 12.75 1.5H11.25C10.0095 1.5 8.99999 2.5095 8.99999 3.75V4.206C8.99999 4.74825 8.71949 5.2335 8.24999 5.505C7.78049 5.77575 7.21949 5.7765 6.74999 5.505L6.35549 5.277C5.28149 4.65675 3.90224 5.02575 3.28124 6.1005L2.53124 7.3995C1.90949 8.4765 2.27774 9.85125 3.35474 10.473L3.74999 10.701C4.21949 10.9717 4.49999 11.4578 4.49999 12C4.49999 12.5422 4.21949 13.0283 3.74999 13.299L3.35549 13.527C2.27849 14.1487 1.91024 15.5235 2.53199 16.6005L3.28199 17.8995C3.90299 18.9742 5.28224 19.3433 6.35549 18.723L6.74999 18.4958C7.21949 18.2235 7.78049 18.225 8.24999 18.4958C8.71949 18.7673 8.99999 19.2525 8.99999 19.7948V20.25C8.99999 21.4905 10.0095 22.5 11.25 22.5H12.75C13.9905 22.5 15 21.4905 15 20.25V19.794C15 19.2518 15.2805 18.7665 15.75 18.495C16.2187 18.2243 16.7805 18.2235 17.25 18.495L17.6445 18.723C18.7185 19.3425 20.0977 18.9735 20.718 17.8995L21.468 16.6005C22.0897 15.5235 21.7215 14.1487 20.6445 13.527ZM12 15.75C9.93224 15.75 8.24999 14.0677 8.24999 12C8.24999 9.93225 9.93224 8.25 12 8.25C14.0677 8.25 15.75 9.93225 15.75 12C15.75 14.0677 14.0677 15.75 12 15.75Z" fill="#9CAC9C"/>
</svg>
