<svg width="27" height="34" viewBox="0 0 27 34" fill="none" xmlns="http://www.w3.org/2000/svg">
<path d="M7.34826 31.8774C7.34826 31.049 8.01983 30.3774 8.84826 30.3774H17.87C18.6985 30.3774 19.37 31.049 19.37 31.8774V31.8774C19.37 32.7059 18.6985 33.3774 17.87 33.3774H8.84826C8.01983 33.3774 7.34826 32.7059 7.34826 31.8774V31.8774Z" fill="#E9B145"/>
<path d="M26.3591 14.2979V15.9935C26.3588 16.2932 26.2396 16.5806 26.0277 16.7925C25.8157 17.0044 25.5284 17.1236 25.2287 17.124H1.48957C1.18986 17.1236 0.902529 17.0044 0.690606 16.7925C0.478682 16.5806 0.359473 16.2932 0.359131 15.9935V14.2979C0.359473 13.9982 0.478682 13.7108 0.690606 13.4989C0.902529 13.287 1.18986 13.1678 1.48957 13.1674H25.2287C25.5284 13.1678 25.8157 13.287 26.0277 13.4989C26.2396 13.7108 26.3588 13.9982 26.3591 14.2979V14.2979ZM1.68513 18.2544H25.0331L24.212 25.2352C24.1632 25.6476 23.9648 26.0279 23.6544 26.3039C23.3441 26.5799 22.9432 26.7324 22.5279 26.7327H4.19036C3.7751 26.7324 3.37435 26.58 3.06399 26.3041C2.75362 26.0282 2.5552 25.6481 2.5063 25.2357L1.68513 18.2544ZM18.4461 23.9066C18.4461 24.0565 18.5056 24.2002 18.6116 24.3062C18.7176 24.4122 18.8614 24.4718 19.0113 24.4718C19.1612 24.4718 19.305 24.4122 19.411 24.3062C19.517 24.2002 19.5765 24.0565 19.5765 23.9066V19.9501C19.5765 19.8002 19.517 19.6564 19.411 19.5504C19.305 19.4444 19.1612 19.3848 19.0113 19.3848C18.8614 19.3848 18.7176 19.4444 18.6116 19.5504C18.5056 19.6564 18.4461 19.8002 18.4461 19.9501V23.9066ZM12.7939 23.9066C12.7939 24.0565 12.8535 24.2002 12.9595 24.3062C13.0655 24.4122 13.2092 24.4718 13.3591 24.4718C13.509 24.4718 13.6528 24.4122 13.7588 24.3062C13.8648 24.2002 13.9243 24.0565 13.9243 23.9066V19.9501C13.9243 19.8002 13.8648 19.6564 13.7588 19.5504C13.6528 19.4444 13.509 19.3848 13.3591 19.3848C13.2092 19.3848 13.0655 19.4444 12.9595 19.5504C12.8535 19.6564 12.7939 19.8002 12.7939 19.9501V23.9066ZM7.14174 23.9066C7.14174 24.0565 7.20129 24.2002 7.30729 24.3062C7.41329 24.4122 7.55705 24.4718 7.70696 24.4718C7.85686 24.4718 8.00063 24.4122 8.10663 24.3062C8.21262 24.2002 8.27217 24.0565 8.27217 23.9066V19.9501C8.27217 19.8002 8.21262 19.6564 8.10663 19.5504C8.00063 19.4444 7.85686 19.3848 7.70696 19.3848C7.55705 19.3848 7.41329 19.4444 7.30729 19.5504C7.20129 19.6564 7.14174 19.8002 7.14174 19.9501V23.9066ZM4.19198 7.54646C3.71078 7.24086 3.31445 6.8188 3.03967 6.31936C2.7649 5.81992 2.62055 5.25923 2.62 4.68919V2.99354C2.61998 2.9193 2.63459 2.8458 2.66299 2.77721C2.69138 2.70863 2.73302 2.64631 2.78551 2.59382C2.83799 2.54133 2.90031 2.4997 2.9689 2.4713C3.03748 2.44291 3.11099 2.4283 3.18522 2.42832H3.75044C4.64956 2.4293 5.51158 2.78691 6.14736 3.42269C6.78314 4.05847 7.14076 4.92049 7.14174 5.81962V6.9834C8.38444 7.12365 9.5321 7.71623 10.366 8.64821C11.1999 9.5802 11.6617 10.7864 11.6635 12.037H1.48957C1.49044 11.1138 1.74238 10.2082 2.21841 9.4172C2.69444 8.62618 3.37664 7.97953 4.19198 7.54646V7.54646ZM7.14174 8.08049C6.99183 8.08049 6.84807 8.14004 6.74207 8.24604C6.63607 8.35204 6.57652 8.4958 6.57652 8.64571C6.57652 8.79561 6.63607 8.93938 6.74207 9.04538C6.84807 9.15138 6.99183 9.21093 7.14174 9.21093C7.51764 9.21071 7.88294 9.33553 8.18013 9.56571C8.47731 9.79589 8.68951 10.1184 8.7833 10.4824C8.82114 10.6271 8.9148 10.751 9.04376 10.8268C9.17273 10.9026 9.32649 10.9242 9.47136 10.8869C9.61624 10.8496 9.74042 10.7564 9.81671 10.6277C9.89301 10.499 9.91519 10.3454 9.87841 10.2003C9.72196 9.59353 9.36819 9.05594 8.87277 8.67219C8.37735 8.28843 7.7684 8.08028 7.14174 8.08049V8.08049ZM9.40261 6.50596V4.68919C9.40383 3.64023 9.82107 2.63458 10.5628 1.89286C11.3045 1.15113 12.3102 0.73389 13.3591 0.732666C14.4081 0.733933 15.4137 1.15119 16.1554 1.8929C16.8971 2.63462 17.3144 3.64024 17.3157 4.68919V12.037H12.7939C12.7939 11.8462 12.7822 11.6583 12.7653 11.4718H14.4896C14.6395 11.4718 14.7832 11.4122 14.8892 11.3062C14.9952 11.2002 15.0548 11.0565 15.0548 10.9066C15.0548 10.7567 14.9952 10.6129 14.8892 10.5069C14.7832 10.4009 14.6395 10.3414 14.4896 10.3414H12.5529C12.3182 9.5205 11.9175 8.75656 11.3757 8.09683C10.8338 7.4371 10.1622 6.89564 9.40261 6.50596V6.50596ZM11.6635 5.25441C11.6635 5.32864 11.6781 5.40214 11.7065 5.47073C11.7349 5.53931 11.7765 5.60163 11.829 5.65412C11.8815 5.70661 11.9438 5.74824 12.0124 5.77664C12.081 5.80504 12.1545 5.81964 12.2287 5.81962H14.4896C14.6395 5.81962 14.7832 5.76007 14.8892 5.65407C14.9952 5.54808 15.0548 5.40431 15.0548 5.25441C15.0548 5.1045 14.9952 4.96073 14.8892 4.85474C14.7832 4.74874 14.6395 4.68919 14.4896 4.68919H12.2287C12.1545 4.68917 12.081 4.70377 12.0124 4.73217C11.9438 4.76057 11.8815 4.8022 11.829 4.85469C11.7765 4.90718 11.7349 4.9695 11.7065 5.03808C11.6781 5.10667 11.6635 5.18017 11.6635 5.25441V5.25441ZM12.7939 8.08049C12.7939 8.15472 12.8085 8.22823 12.8369 8.29681C12.8653 8.3654 12.9069 8.42771 12.9594 8.4802C13.0119 8.53269 13.0742 8.57433 13.1428 8.60272C13.2114 8.63112 13.2849 8.64573 13.3591 8.64571H14.4896C14.6395 8.64571 14.7832 8.58616 14.8892 8.48016C14.9952 8.37416 15.0548 8.2304 15.0548 8.08049C15.0548 7.93059 14.9952 7.78682 14.8892 7.68082C14.7832 7.57482 14.6395 7.51527 14.4896 7.51527H13.3591C13.2849 7.51526 13.2114 7.52986 13.1428 7.55826C13.0742 7.58666 13.0119 7.62829 12.9594 7.68078C12.9069 7.73327 12.8653 7.79559 12.8369 7.86417C12.8085 7.93275 12.7939 8.00626 12.7939 8.08049V8.08049ZM25.2287 12.037H18.4461V7.51527H23.533C23.9826 7.51577 24.4136 7.69457 24.7315 8.01246C25.0494 8.33035 25.2282 8.76136 25.2287 9.21093V12.037ZM22.9678 9.21093C22.9678 9.1367 22.9532 9.06319 22.9248 8.9946C22.8964 8.92602 22.8548 8.8637 22.8023 8.81121C22.7498 8.75872 22.6875 8.71709 22.6189 8.6887C22.5503 8.6603 22.4768 8.64569 22.4026 8.64571H20.1417C19.9918 8.64571 19.8481 8.70526 19.7421 8.81126C19.6361 8.91726 19.5765 9.06102 19.5765 9.21093C19.5765 9.36083 19.6361 9.5046 19.7421 9.6106C19.8481 9.71659 19.9918 9.77614 20.1417 9.77614H22.4026C22.4768 9.77616 22.5503 9.76156 22.6189 9.73316C22.6875 9.70476 22.7498 9.66313 22.8023 9.61064C22.8548 9.55815 22.8964 9.49583 22.9248 9.42725C22.9532 9.35867 22.9678 9.28516 22.9678 9.21093V9.21093Z" fill="#E9B145"/>
</svg>
