<svg width="45" height="44" viewBox="0 0 45 44" fill="none" xmlns="http://www.w3.org/2000/svg">
<ellipse cx="22.3484" cy="22" rx="21.886" ry="21.886" fill="#273F3A"/>
<path d="M35.3591 23.2979V24.9935C35.3588 25.2932 35.2396 25.5806 35.0277 25.7925C34.8157 26.0044 34.5284 26.1236 34.2287 26.124H10.4896C10.1899 26.1236 9.90253 26.0044 9.69061 25.7925C9.47868 25.5806 9.35947 25.2932 9.35913 24.9935V23.2979C9.35947 22.9982 9.47868 22.7108 9.69061 22.4989C9.90253 22.287 10.1899 22.1678 10.4896 22.1674H34.2287C34.5284 22.1678 34.8157 22.287 35.0277 22.4989C35.2396 22.7108 35.3588 22.9982 35.3591 23.2979V23.2979ZM10.6851 27.2544H34.0331L33.212 34.2352C33.1632 34.6476 32.9648 35.0279 32.6544 35.3039C32.3441 35.5799 31.9432 35.7324 31.5279 35.7327H13.1904C12.7751 35.7324 12.3743 35.58 12.064 35.3041C11.7536 35.0282 11.5552 34.6481 11.5063 34.2357L10.6851 27.2544ZM27.4461 32.9066C27.4461 33.0565 27.5056 33.2002 27.6116 33.3062C27.7176 33.4122 27.8614 33.4718 28.0113 33.4718C28.1612 33.4718 28.305 33.4122 28.411 33.3062C28.517 33.2002 28.5765 33.0565 28.5765 32.9066V28.9501C28.5765 28.8002 28.517 28.6564 28.411 28.5504C28.305 28.4444 28.1612 28.3848 28.0113 28.3848C27.8614 28.3848 27.7176 28.4444 27.6116 28.5504C27.5056 28.6564 27.4461 28.8002 27.4461 28.9501V32.9066ZM21.7939 32.9066C21.7939 33.0565 21.8535 33.2002 21.9595 33.3062C22.0655 33.4122 22.2092 33.4718 22.3591 33.4718C22.509 33.4718 22.6528 33.4122 22.7588 33.3062C22.8648 33.2002 22.9243 33.0565 22.9243 32.9066V28.9501C22.9243 28.8002 22.8648 28.6564 22.7588 28.5504C22.6528 28.4444 22.509 28.3848 22.3591 28.3848C22.2092 28.3848 22.0655 28.4444 21.9595 28.5504C21.8535 28.6564 21.7939 28.8002 21.7939 28.9501V32.9066ZM16.1417 32.9066C16.1417 33.0565 16.2013 33.2002 16.3073 33.3062C16.4133 33.4122 16.5571 33.4718 16.707 33.4718C16.8569 33.4718 17.0006 33.4122 17.1066 33.3062C17.2126 33.2002 17.2722 33.0565 17.2722 32.9066V28.9501C17.2722 28.8002 17.2126 28.6564 17.1066 28.5504C17.0006 28.4444 16.8569 28.3848 16.707 28.3848C16.5571 28.3848 16.4133 28.4444 16.3073 28.5504C16.2013 28.6564 16.1417 28.8002 16.1417 28.9501V32.9066ZM13.192 16.5465C12.7108 16.2409 12.3144 15.8188 12.0397 15.3194C11.7649 14.8199 11.6206 14.2592 11.62 13.6892V11.9935C11.62 11.9193 11.6346 11.8458 11.663 11.7772C11.6914 11.7086 11.733 11.6463 11.7855 11.5938C11.838 11.5413 11.9003 11.4997 11.9689 11.4713C12.0375 11.4429 12.111 11.4283 12.1852 11.4283H12.7504C13.6496 11.4293 14.5116 11.7869 15.1474 12.4227C15.7831 13.0585 16.1408 13.9205 16.1417 14.8196V15.9834C17.3844 16.1236 18.5321 16.7162 19.366 17.6482C20.1999 18.5802 20.6617 19.7864 20.6635 21.037H10.4896C10.4904 20.1138 10.7424 19.2082 11.2184 18.4172C11.6944 17.6262 12.3766 16.9795 13.192 16.5465V16.5465ZM16.1417 17.0805C15.9918 17.0805 15.8481 17.14 15.7421 17.246C15.6361 17.352 15.5765 17.4958 15.5765 17.6457C15.5765 17.7956 15.6361 17.9394 15.7421 18.0454C15.8481 18.1514 15.9918 18.2109 16.1417 18.2109C16.5176 18.2107 16.8829 18.3355 17.1801 18.5657C17.4773 18.7959 17.6895 19.1184 17.7833 19.4824C17.8211 19.6271 17.9148 19.751 18.0438 19.8268C18.1727 19.9026 18.3265 19.9242 18.4714 19.8869C18.6162 19.8496 18.7404 19.7564 18.8167 19.6277C18.893 19.499 18.9152 19.3454 18.8784 19.2003C18.722 18.5935 18.3682 18.0559 17.8728 17.6722C17.3774 17.2884 16.7684 17.0803 16.1417 17.0805V17.0805ZM18.4026 15.506V13.6892C18.4038 12.6402 18.8211 11.6346 19.5628 10.8929C20.3045 10.1511 21.3102 9.73389 22.3591 9.73267C23.4081 9.73393 24.4137 10.1512 25.1554 10.8929C25.8971 11.6346 26.3144 12.6402 26.3157 13.6892V21.037H21.7939C21.7939 20.8462 21.7822 20.6583 21.7653 20.4718H23.4896C23.6395 20.4718 23.7832 20.4122 23.8892 20.3062C23.9952 20.2002 24.0548 20.0565 24.0548 19.9066C24.0548 19.7567 23.9952 19.6129 23.8892 19.5069C23.7832 19.4009 23.6395 19.3414 23.4896 19.3414H21.5529C21.3182 18.5205 20.9175 17.7566 20.3757 17.0968C19.8338 16.4371 19.1622 15.8956 18.4026 15.506V15.506ZM20.6635 14.2544C20.6635 14.3286 20.6781 14.4021 20.7065 14.4707C20.7349 14.5393 20.7765 14.6016 20.829 14.6541C20.8815 14.7066 20.9438 14.7482 21.0124 14.7766C21.081 14.805 21.1545 14.8196 21.2287 14.8196H23.4896C23.6395 14.8196 23.7832 14.7601 23.8892 14.6541C23.9952 14.5481 24.0548 14.4043 24.0548 14.2544C24.0548 14.1045 23.9952 13.9607 23.8892 13.8547C23.7832 13.7487 23.6395 13.6892 23.4896 13.6892H21.2287C21.1545 13.6892 21.081 13.7038 21.0124 13.7322C20.9438 13.7606 20.8815 13.8022 20.829 13.8547C20.7765 13.9072 20.7349 13.9695 20.7065 14.0381C20.6781 14.1067 20.6635 14.1802 20.6635 14.2544V14.2544ZM21.7939 17.0805C21.7939 17.1547 21.8085 17.2282 21.8369 17.2968C21.8653 17.3654 21.9069 17.4277 21.9594 17.4802C22.0119 17.5327 22.0742 17.5743 22.1428 17.6027C22.2114 17.6311 22.2849 17.6457 22.3591 17.6457H23.4896C23.6395 17.6457 23.7832 17.5862 23.8892 17.4802C23.9952 17.3742 24.0548 17.2304 24.0548 17.0805C24.0548 16.9306 23.9952 16.7868 23.8892 16.6808C23.7832 16.5748 23.6395 16.5153 23.4896 16.5153H22.3591C22.2849 16.5153 22.2114 16.5299 22.1428 16.5583C22.0742 16.5867 22.0119 16.6283 21.9594 16.6808C21.9069 16.7333 21.8653 16.7956 21.8369 16.8642C21.8085 16.9328 21.7939 17.0063 21.7939 17.0805V17.0805ZM34.2287 21.037H27.4461V16.5153H32.533C32.9826 16.5158 33.4136 16.6946 33.7315 17.0125C34.0494 17.3304 34.2282 17.7614 34.2287 18.2109V21.037ZM31.9678 18.2109C31.9678 18.1367 31.9532 18.0632 31.9248 17.9946C31.8964 17.926 31.8548 17.8637 31.8023 17.8112C31.7498 17.7587 31.6875 17.7171 31.6189 17.6887C31.5503 17.6603 31.4768 17.6457 31.4026 17.6457H29.1417C28.9918 17.6457 28.8481 17.7053 28.7421 17.8113C28.6361 17.9173 28.5765 18.061 28.5765 18.2109C28.5765 18.3608 28.6361 18.5046 28.7421 18.6106C28.8481 18.7166 28.9918 18.7761 29.1417 18.7761H31.4026C31.4768 18.7762 31.5503 18.7616 31.6189 18.7332C31.6875 18.7048 31.7498 18.6631 31.8023 18.6106C31.8548 18.5582 31.8964 18.4958 31.9248 18.4272C31.9532 18.3587 31.9678 18.2852 31.9678 18.2109V18.2109Z" fill="#E9B145"/>
<path d="M16.3375 39.3774C16.3375 38.549 17.0091 37.8774 17.8375 37.8774H26.8593C27.6877 37.8774 28.3593 38.549 28.3593 39.3774V39.3774C28.3593 40.2059 27.6877 40.8774 26.8593 40.8774H17.8375C17.0091 40.8774 16.3375 40.2059 16.3375 39.3774V39.3774Z" fill="#E9B145"/>
</svg>
