<svg width="45" height="45" viewBox="0 0 45 45" fill="none" xmlns="http://www.w3.org/2000/svg">
<ellipse cx="22.3484" cy="22.7327" rx="21.886" ry="21.886" fill="#273F3A"/>
<path d="M16.3375 40.8774C16.3375 40.049 17.0091 39.3774 17.8375 39.3774H26.8593C27.6877 39.3774 28.3593 40.049 28.3593 40.8774V40.8774C28.3593 41.7059 27.6877 42.3774 26.8593 42.3774H17.8375C17.0091 42.3774 16.3375 41.7059 16.3375 40.8774V40.8774Z" fill="#E9B145"/>
<path d="M35.0218 23.154L23.3133 10.1445C22.8203 9.59554 21.8732 9.59554 21.3801 10.1445L9.67165 23.154C9.50342 23.3409 9.39297 23.5725 9.35365 23.8209C9.31433 24.0692 9.34783 24.3237 9.4501 24.5534C9.55236 24.7831 9.71901 24.9783 9.92988 25.1153C10.1407 25.2522 10.3868 25.3252 10.6382 25.3252H13.2401V34.4318C13.2401 34.7769 13.3772 35.1078 13.6212 35.3518C13.8651 35.5957 14.196 35.7328 14.5411 35.7328H30.1524C30.4974 35.7328 30.8283 35.5957 31.0723 35.3518C31.3163 35.1078 31.4533 34.7769 31.4533 34.4318V25.3252H34.0552C34.3072 25.3263 34.554 25.2541 34.7656 25.1173C34.9772 24.9805 35.1444 24.7851 35.2469 24.5549C35.3493 24.3248 35.3826 24.0698 35.3427 23.821C35.3027 23.5722 35.1912 23.3405 35.0218 23.154V23.154ZM22.3467 27.9271C21.3116 27.9271 20.3189 27.5159 19.587 26.784C18.8551 26.0521 18.4439 25.0594 18.4439 24.0243C18.4439 22.9892 18.8551 21.9965 19.587 21.2646C20.3189 20.5327 21.3116 20.1215 22.3467 20.1215C23.3818 20.1215 24.3745 20.5327 25.1065 21.2646C25.8384 21.9965 26.2496 22.9892 26.2496 24.0243C26.2496 25.0594 25.8384 26.0521 25.1065 26.784C24.3745 27.5159 23.3818 27.9271 22.3467 27.9271Z" fill="#E9B145"/>
</svg>
