<svg width="45" height="45" viewBox="0 0 45 45" fill="none" xmlns="http://www.w3.org/2000/svg">
<ellipse cx="22.3484" cy="22.6942" rx="21.886" ry="21.886" fill="#273F3A"/>
<path d="M35.0218 22.1538L23.3133 9.14441C22.8203 8.59542 21.8732 8.59542 21.3801 9.14441L9.67165 22.1538C9.50342 22.3407 9.39297 22.5724 9.35365 22.8207C9.31433 23.0691 9.34783 23.3235 9.4501 23.5533C9.55236 23.783 9.71901 23.9781 9.92988 24.1151C10.1407 24.2521 10.3868 24.3251 10.6382 24.3251H13.2401V33.4317C13.2401 33.7768 13.3772 34.1077 13.6212 34.3516C13.8651 34.5956 14.196 34.7327 14.5411 34.7327H30.1524C30.4974 34.7327 30.8283 34.5956 31.0723 34.3516C31.3163 34.1077 31.4533 33.7768 31.4533 33.4317V24.3251H34.0552C34.3072 24.3262 34.554 24.2539 34.7656 24.1172C34.9772 23.9804 35.1444 23.785 35.2469 23.5548C35.3493 23.3246 35.3826 23.0696 35.3427 22.8209C35.3027 22.5721 35.1912 22.3403 35.0218 22.1538V22.1538ZM22.3467 26.927C21.3116 26.927 20.3189 26.5158 19.587 25.7839C18.8551 25.052 18.4439 24.0593 18.4439 23.0242C18.4439 21.9891 18.8551 20.9964 19.587 20.2645C20.3189 19.5325 21.3116 19.1213 22.3467 19.1213C23.3818 19.1213 24.3745 19.5325 25.1065 20.2645C25.8384 20.9964 26.2496 21.9891 26.2496 23.0242C26.2496 24.0593 25.8384 25.052 25.1065 25.7839C24.3745 26.5158 23.3818 26.927 22.3467 26.927Z" fill="#FFFAF2"/>
</svg>
