<svg width="27" height="35" viewBox="0 0 27 35" fill="none" xmlns="http://www.w3.org/2000/svg">
<path d="M7.33752 32.8774C7.33752 32.049 8.00909 31.3774 8.83752 31.3774H17.8593C18.6877 31.3774 19.3593 32.049 19.3593 32.8774C19.3593 33.7059 18.6877 34.3774 17.8593 34.3774H8.83752C8.00909 34.3774 7.33752 33.7059 7.33752 32.8774Z" fill="#E9B145"/>
<path d="M26.0218 13.6885L14.3133 0.679082C13.8203 0.130084 12.8732 0.130084 12.3801 0.679082L0.671648 13.6885C0.503425 13.8754 0.39297 14.1071 0.353651 14.3554C0.314331 14.6038 0.347831 14.8582 0.450097 15.0879C0.552363 15.3177 0.719012 15.5128 0.929879 15.6498C1.14075 15.7868 1.38679 15.8597 1.63825 15.8598H4.24014V24.9664C4.24014 25.3114 4.3772 25.6423 4.62117 25.8863C4.86515 26.1303 5.19605 26.2673 5.54108 26.2673H21.1524C21.4974 26.2673 21.8283 26.1303 22.0723 25.8863C22.3163 25.6423 22.4533 25.3114 22.4533 24.9664V15.8598H25.0552C25.3072 15.8609 25.554 15.7886 25.7656 15.6518C25.9772 15.5151 26.1444 15.3197 26.2469 15.0895C26.3493 14.8593 26.3826 14.6043 26.3427 14.3555C26.3027 14.1068 26.1912 13.875 26.0218 13.6885ZM13.3467 18.4617C12.3116 18.4617 11.3189 18.0505 10.587 17.3186C9.8551 16.5866 9.44391 15.5939 9.44391 14.5588C9.44391 13.5238 9.8551 12.531 10.587 11.7991C11.3189 11.0672 12.3116 10.656 13.3467 10.656C14.3818 10.656 15.3745 11.0672 16.1065 11.7991C16.8384 12.531 17.2496 13.5238 17.2496 14.5588C17.2496 15.5939 16.8384 16.5866 16.1065 17.3186C15.3745 18.0505 14.3818 18.4617 13.3467 18.4617Z" fill="#E9B145"/>
</svg>
