<svg width="68" height="68" viewBox="0 0 68 68" fill="none" xmlns="http://www.w3.org/2000/svg">
<rect width="68" height="68" rx="10" fill="#141C1B"/>
<path d="M49.6154 11.8745H18.3825C14.7951 11.8745 11.8748 14.7927 11.8748 18.3823V49.6173C11.8748 53.2047 14.793 56.125 18.3825 56.125H49.6175C53.2049 56.125 56.1253 53.2068 56.1253 49.6173V18.3823C56.1231 14.7927 53.2049 11.8745 49.6154 11.8745ZM53.52 49.6151C53.52 51.7671 51.7695 53.5198 49.6154 53.5198H18.3825C16.2305 53.5198 14.4779 51.7693 14.4779 49.6151V44.9075L24.9809 33.2368L39.1685 46.1335L47.0144 39.5956L53.5222 45.0176V49.6151H53.52ZM53.52 41.631L47.0123 36.209L39.2397 42.6843L24.7974 29.5523L14.4779 41.018V18.3823C14.4779 16.2303 16.2284 14.4776 18.3825 14.4776H49.6175C51.7695 14.4776 53.5222 16.2281 53.5222 18.3823V41.631H53.52Z" fill="#FFFAF2" fill-opacity="0.75"/>
<path d="M43.1099 31.3954C46.6973 31.3954 49.6177 28.4771 49.6177 24.8876C49.6177 21.2981 46.6994 18.3799 43.1099 18.3799C39.5226 18.3799 36.6022 21.2981 36.6022 24.8876C36.6022 28.4771 39.5204 31.3954 43.1099 31.3954ZM43.1099 20.9851C45.2619 20.9851 47.0146 22.7357 47.0146 24.8898C47.0146 27.0439 45.2641 28.7944 43.1099 28.7944C40.9558 28.7944 39.2053 27.0439 39.2053 24.8898C39.2053 22.7357 40.9558 20.9851 43.1099 20.9851Z" fill="#FFFAF2" fill-opacity="0.75"/>
</svg>
