<svg width="44" height="45" viewBox="0 0 44 45" fill="none" xmlns="http://www.w3.org/2000/svg">
<ellipse cx="22.0017" cy="22.6942" rx="21.886" ry="21.886" fill="#273F3A"/>
<path d="M31.5091 8.75916C31.2894 8.7069 31.0582 8.7351 30.8574 8.83866L29.4303 9.55133L27.9911 8.8317C27.8621 8.76724 27.72 8.73368 27.5758 8.73368C27.4317 8.73368 27.2895 8.76724 27.1606 8.8317L25.7033 9.55191L24.2652 8.8317C24.1359 8.76677 23.9932 8.73296 23.8485 8.73296C23.7038 8.73296 23.5612 8.76677 23.4319 8.8317L22.0019 9.54959L20.5829 8.83344C20.454 8.76806 20.3115 8.7337 20.1669 8.7331C20.0223 8.7325 19.8796 8.76566 19.7501 8.82996L18.2876 9.55249L16.8484 8.83112C16.7192 8.76669 16.5769 8.73315 16.4326 8.73315C16.2882 8.73315 16.1459 8.76669 16.0167 8.83112L14.5734 9.55133L13.1318 8.83112C12.946 8.73796 12.7342 8.70986 12.5305 8.75132C12.3268 8.79278 12.1429 8.90139 12.0083 9.05978C11.8631 9.23276 11.7849 9.45207 11.7877 9.67785V23.59L11.7906 23.5929H22.9304C23.423 23.5929 23.8953 23.7885 24.2436 24.1368C24.5919 24.4851 24.7875 24.9574 24.7875 25.45V31.4827C24.7875 33.2777 26.7068 34.7327 28.5018 34.7327H29.1982C29.9986 34.7327 30.7662 34.4147 31.3321 33.8488C31.8981 33.2828 32.216 32.5152 32.216 31.7149V9.6616C32.2162 9.45377 32.1466 9.25189 32.0185 9.08828C31.8903 8.92467 31.711 8.80878 31.5091 8.75916ZM27.5732 20.8043H20.1738C19.6724 20.8043 19.2394 20.4189 19.2174 19.9175C19.2117 19.7922 19.2315 19.6671 19.2756 19.5496C19.3196 19.4322 19.387 19.3249 19.4737 19.2342C19.5604 19.1435 19.6645 19.0713 19.7798 19.022C19.8952 18.9727 20.0193 18.9472 20.1448 18.9472H27.5442C28.0456 18.9472 28.4786 19.3325 28.5006 19.834C28.5063 19.9593 28.4865 20.0844 28.4424 20.2019C28.3983 20.3193 28.3309 20.4266 28.2443 20.5173C28.1576 20.608 28.0535 20.6802 27.9381 20.7295C27.8228 20.7788 27.6987 20.8043 27.5732 20.8043ZM27.5732 16.1615H16.4595C15.9581 16.1615 15.5252 15.7762 15.5031 15.2747C15.4975 15.1494 15.5173 15.0243 15.5613 14.9068C15.6054 14.7894 15.6728 14.6821 15.7595 14.5914C15.8461 14.5007 15.9503 14.4285 16.0656 14.3792C16.181 14.3299 16.3051 14.3044 16.4305 14.3044H27.5442C28.0456 14.3044 28.4786 14.6897 28.5006 15.1912C28.5063 15.3165 28.4865 15.4416 28.4424 15.5591C28.3983 15.6765 28.3309 15.7838 28.2443 15.8745C28.1576 15.9652 28.0535 16.0374 27.9381 16.0867C27.8228 16.136 27.6987 16.1615 27.5732 16.1615Z" fill="#E9B145"/>
<path d="M22.9305 31.4828V26.3757C22.9305 26.1294 22.8326 25.8932 22.6585 25.7191C22.4844 25.545 22.2482 25.4471 22.0019 25.4471H6.21643C5.72386 25.4487 5.25195 25.6452 4.90392 25.9938C4.55589 26.3424 4.36008 26.8146 4.35931 27.3072C4.35931 30.2408 4.69476 31.4607 5.1985 32.3893C6.05335 33.9661 7.60114 34.7327 9.93066 34.7327H24.1887C24.2345 34.7328 24.2793 34.7192 24.3174 34.6939C24.3555 34.6685 24.3853 34.6325 24.403 34.5902C24.4207 34.548 24.4255 34.5014 24.4168 34.4565C24.4081 34.4115 24.3862 34.3701 24.3541 34.3375C23.8051 33.7868 22.9305 33.0497 22.9305 31.4828Z" fill="#E9B145"/>
<circle cx="33.4929" cy="23.131" r="6.43423" fill="#E9B145" stroke="#273F3A" stroke-width="2"/>
<path d="M15.9908 39.8774C15.9908 39.049 16.6624 38.3774 17.4908 38.3774H26.5126C27.3411 38.3774 28.0126 39.049 28.0126 39.8774V39.8774C28.0126 40.7059 27.3411 41.3774 26.5126 41.3774H17.4908C16.6624 41.3774 15.9908 40.7059 15.9908 39.8774V39.8774Z" fill="#E9B145"/>
<line x1="30.9911" y1="23.1444" x2="35.9945" y2="23.1444" stroke="#273F3A" stroke-width="2" stroke-linecap="round"/>
<line x1="33.5277" y1="20.6293" x2="33.5277" y2="25.6327" stroke="#273F3A" stroke-width="2" stroke-linecap="round"/>
</svg>
