<svg width="44" height="45" viewBox="0 0 44 45" fill="none" xmlns="http://www.w3.org/2000/svg">
<ellipse cx="22.0017" cy="22.7327" rx="21.886" ry="21.886" fill="#273F3A"/>
<path d="M31.5091 9.75916C31.2893 9.7069 31.0581 9.7351 30.8574 9.83866L29.4303 10.5513L27.991 9.8317C27.8621 9.76724 27.7199 9.73368 27.5758 9.73368C27.4316 9.73368 27.2895 9.76724 27.1605 9.8317L25.7033 10.5519L24.2652 9.8317C24.1359 9.76677 23.9932 9.73296 23.8485 9.73296C23.7038 9.73296 23.5611 9.76677 23.4318 9.8317L22.0018 10.5496L20.5829 9.83344C20.4539 9.76806 20.3115 9.7337 20.1669 9.7331C20.0223 9.7325 19.8796 9.76566 19.7501 9.82996L18.2876 10.5525L16.8483 9.83112C16.7192 9.76669 16.5768 9.73315 16.4325 9.73315C16.2882 9.73315 16.1458 9.76669 16.0167 9.83112L14.5733 10.5513L13.1318 9.83112C12.9459 9.73796 12.7342 9.70986 12.5305 9.75132C12.3268 9.79278 12.1429 9.90139 12.0082 10.0598C11.8631 10.2328 11.7848 10.4521 11.7877 10.6778V24.59L11.7906 24.5929H22.9304C23.4229 24.5929 23.8953 24.7885 24.2435 25.1368C24.5918 25.4851 24.7875 25.9574 24.7875 26.45V32.4827C24.7875 34.2777 26.7067 35.7327 28.5017 35.7327H29.1981C29.9985 35.7327 30.7661 35.4147 31.3321 34.8488C31.898 34.2828 32.2159 33.5152 32.2159 32.7149V10.6616C32.2161 10.4538 32.1466 10.2519 32.0184 10.0883C31.8902 9.92467 31.7109 9.80878 31.5091 9.75916ZM27.5732 21.8043H20.1737C19.6723 21.8043 19.2394 21.4189 19.2173 20.9175C19.2117 20.7922 19.2315 20.6671 19.2755 20.5496C19.3196 20.4322 19.387 20.3249 19.4736 20.2342C19.5603 20.1435 19.6645 20.0713 19.7798 20.022C19.8951 19.9727 20.0193 19.9472 20.1447 19.9472H27.5441C28.0456 19.9472 28.4785 20.3325 28.5006 20.834C28.5062 20.9593 28.4864 21.0844 28.4423 21.2019C28.3983 21.3193 28.3309 21.4266 28.2442 21.5173C28.1575 21.608 28.0534 21.6802 27.9381 21.7295C27.8227 21.7788 27.6986 21.8043 27.5732 21.8043ZM27.5732 17.1615H16.4595C15.9581 17.1615 15.5251 16.7762 15.5031 16.2747C15.4974 16.1494 15.5172 16.0243 15.5613 15.9068C15.6053 15.7894 15.6727 15.6821 15.7594 15.5914C15.8461 15.5007 15.9502 15.4285 16.0656 15.3792C16.1809 15.3299 16.305 15.3044 16.4305 15.3044H27.5441C28.0456 15.3044 28.4785 15.6897 28.5006 16.1912C28.5062 16.3165 28.4864 16.4416 28.4423 16.5591C28.3983 16.6765 28.3309 16.7838 28.2442 16.8745C28.1575 16.9652 28.0534 17.0374 27.9381 17.0867C27.8227 17.136 27.6986 17.1615 27.5732 17.1615Z" fill="#FFFAF2"/>
<path d="M22.9304 32.4828V27.3757C22.9304 27.1294 22.8326 26.8932 22.6584 26.7191C22.4843 26.545 22.2481 26.4471 22.0019 26.4471H6.21637C5.7238 26.4487 5.25189 26.6452 4.90386 26.9938C4.55583 27.3424 4.36002 27.8146 4.35925 28.3072C4.35925 31.2408 4.69469 32.4607 5.19844 33.3893C6.05329 34.9661 7.60108 35.7327 9.9306 35.7327H24.1886C24.2344 35.7328 24.2792 35.7192 24.3173 35.6939C24.3555 35.6685 24.3853 35.6325 24.4029 35.5902C24.4206 35.548 24.4254 35.5014 24.4167 35.4565C24.408 35.4115 24.3862 35.3701 24.354 35.3375C23.805 34.7868 22.9304 34.0497 22.9304 32.4828Z" fill="#FFFAF2"/>
<circle cx="33.4928" cy="24.131" r="6.43423" fill="#FFFAF2" stroke="#273F3A" stroke-width="2"/>
<line x1="30.9911" y1="24.1444" x2="35.9945" y2="24.1444" stroke="#273F3A" stroke-width="2" stroke-linecap="round"/>
<line x1="33.5276" y1="21.6293" x2="33.5276" y2="26.6327" stroke="#273F3A" stroke-width="2" stroke-linecap="round"/>
</svg>
