<svg width="37" height="27" viewBox="0 0 37 27" fill="none" xmlns="http://www.w3.org/2000/svg">
<path d="M27.509 0.759157C27.2892 0.706897 27.058 0.735104 26.8572 0.838665L25.4302 1.55133L23.9909 0.831701C23.862 0.767241 23.7198 0.733682 23.5757 0.733682C23.4315 0.733682 23.2893 0.767241 23.1604 0.831701L21.7032 1.55191L20.265 0.831701C20.1357 0.76677 19.9931 0.732956 19.8484 0.732956C19.7037 0.732956 19.561 0.76677 19.4317 0.831701L18.0017 1.54959L16.5827 0.833442C16.4538 0.768064 16.3113 0.733705 16.1667 0.7331C16.0222 0.732496 15.8794 0.765663 15.7499 0.82996L14.2875 1.55249L12.8482 0.83112C12.719 0.766691 12.5767 0.733154 12.4324 0.733154C12.288 0.733154 12.1457 0.766691 12.0166 0.83112L10.5732 1.55133L9.13164 0.83112C8.94579 0.737962 8.73406 0.709861 8.53035 0.751319C8.32664 0.792777 8.14274 0.901394 8.00808 1.05978C7.86295 1.23276 7.7847 1.45207 7.78755 1.67785V15.59L7.79045 15.5929H18.9302C19.4228 15.5929 19.8951 15.7885 20.2434 16.1368C20.5917 16.4851 20.7874 16.9574 20.7874 17.45V23.4827C20.7874 25.2777 22.7066 26.7327 24.5016 26.7327H25.198C25.9984 26.7327 26.766 26.4147 27.3319 25.8488C27.8979 25.2828 28.2158 24.5152 28.2158 23.7149V1.6616C28.216 1.45377 28.1464 1.25189 28.0183 1.08828C27.8901 0.924667 27.7108 0.808776 27.509 0.759157ZM23.573 12.8043H16.1736C15.6722 12.8043 15.2392 12.4189 15.2172 11.9175C15.2115 11.7922 15.2313 11.6671 15.2754 11.5496C15.3194 11.4322 15.3868 11.3249 15.4735 11.2342C15.5602 11.1435 15.6643 11.0713 15.7797 11.022C15.895 10.9727 16.0191 10.9472 16.1446 10.9472H23.544C24.0454 10.9472 24.4784 11.3325 24.5004 11.834C24.5061 11.9593 24.4863 12.0844 24.4422 12.2019C24.3982 12.3193 24.3308 12.4266 24.2441 12.5173C24.1574 12.608 24.0533 12.6802 23.9379 12.7295C23.8226 12.7788 23.6985 12.8043 23.573 12.8043ZM23.573 8.16151H12.4594C11.9579 8.16151 11.525 7.77615 11.5029 7.27473C11.4973 7.14942 11.5171 7.02426 11.5612 6.90682C11.6052 6.78937 11.6726 6.68206 11.7593 6.59138C11.846 6.5007 11.9501 6.42851 12.0654 6.37919C12.1808 6.32986 12.3049 6.30442 12.4303 6.30439H23.544C24.0454 6.30439 24.4784 6.68974 24.5004 7.19116C24.5061 7.31647 24.4863 7.44163 24.4422 7.55908C24.3982 7.67653 24.3308 7.78383 24.2441 7.87451C24.1574 7.9652 24.0533 8.03738 23.9379 8.08671C23.8226 8.13603 23.6985 8.16148 23.573 8.16151Z" fill="#FFFAF2"/>
<path d="M18.9303 23.4828V18.3757C18.9303 18.1294 18.8325 17.8932 18.6583 17.7191C18.4842 17.545 18.248 17.4471 18.0017 17.4471H2.21625C1.72368 17.4487 1.25177 17.6452 0.903737 17.9938C0.555709 18.3424 0.359896 18.8146 0.359131 19.3072C0.359131 22.2408 0.694572 23.4607 1.19832 24.3893C2.05317 25.9661 3.60096 26.7327 5.93048 26.7327H20.1885C20.2343 26.7328 20.2791 26.7192 20.3172 26.6939C20.3554 26.6685 20.3851 26.6325 20.4028 26.5902C20.4205 26.548 20.4253 26.5014 20.4166 26.4565C20.4079 26.4115 20.3861 26.3701 20.3539 26.3375C19.8049 25.7868 18.9303 25.0497 18.9303 23.4828Z" fill="#FFFAF2"/>
<circle cx="29.4927" cy="15.131" r="6.43423" fill="#FFFAF2" stroke="#273F3A" stroke-width="2"/>
<line x1="26.991" y1="15.1444" x2="31.9944" y2="15.1444" stroke="#273F3A" stroke-width="2" stroke-linecap="round"/>
<line x1="29.5276" y1="12.6293" x2="29.5276" y2="17.6327" stroke="#273F3A" stroke-width="2" stroke-linecap="round"/>
</svg>
