<svg width="45" height="45" viewBox="0 0 45 45" fill="none" xmlns="http://www.w3.org/2000/svg">
<ellipse cx="22.8799" cy="22.6942" rx="21.886" ry="21.886" fill="#273F3A"/>
<path d="M27.6448 29.967V30.8335C27.6441 31.4079 27.4157 31.9585 27.0096 32.3646C26.6035 32.7707 26.0529 32.9991 25.4785 32.9998H25.002C24.9021 33.489 24.6362 33.9287 24.2494 34.2445C23.8626 34.5603 23.3786 34.7328 22.8793 34.7328C22.3799 34.7328 21.8959 34.5603 21.5091 34.2445C21.1223 33.9287 20.8565 33.489 20.7566 32.9998H20.2796C19.7052 32.9991 19.1546 32.7707 18.7485 32.3646C18.3424 31.9585 18.114 31.4079 18.1133 30.8335V29.967C18.1137 29.6225 18.2508 29.2921 18.4944 29.0484C18.7381 28.8048 19.0685 28.6677 19.4131 28.6673H26.345C26.6896 28.6677 27.02 28.8048 27.2637 29.0484C27.5073 29.2921 27.6444 29.6225 27.6448 29.967V29.967ZM28.8758 11.1348C28.0422 10.3381 27.0581 9.71579 25.9811 9.30414C24.904 8.89249 23.7557 8.69982 22.6033 8.73739C21.4508 8.77497 20.3175 9.04205 19.2695 9.52299C18.2216 10.0039 17.2801 10.6891 16.5002 11.5383C15.7202 12.3876 15.1175 13.3838 14.7274 14.4689C14.3372 15.5539 14.1674 16.7058 14.2278 17.8573C14.2883 19.0087 14.5778 20.1366 15.0794 21.1747C15.5811 22.2129 16.2848 23.1406 17.1494 23.9035C17.4543 24.1753 17.698 24.5088 17.8642 24.882C18.0304 25.2551 18.1153 25.6594 18.1133 26.0678C18.1137 26.4124 18.2508 26.7428 18.4944 26.9865C18.7381 27.2301 19.0685 27.3672 19.4131 27.3676H26.345C26.6896 27.3672 27.02 27.2301 27.2636 26.9864C27.5073 26.7428 27.6444 26.4124 27.6448 26.0678C27.6433 25.6585 27.7289 25.2536 27.8958 24.8798C28.0627 24.506 28.3071 24.172 28.6128 23.8999C29.5116 23.1053 30.236 22.133 30.7401 21.0444C31.2443 19.9558 31.5174 18.7745 31.5421 17.575C31.5668 16.3756 31.3427 15.184 30.8837 14.0756C30.4248 12.9671 29.7412 11.9658 28.8758 11.1349V11.1348Z" fill="#E9B145"/>
<circle cx="27.8005" cy="8.62907" r="3.92057" fill="#CC704B" stroke="#273F3A" stroke-width="2"/>
<path d="M17.3375 40.8774C17.3375 40.049 18.0091 39.3774 18.8375 39.3774H27.8593C28.6877 39.3774 29.3593 40.049 29.3593 40.8774V40.8774C29.3593 41.7059 28.6877 42.3774 27.8593 42.3774H18.8375C18.0091 42.3774 17.3375 41.7059 17.3375 40.8774V40.8774Z" fill="#E9B145"/>
</svg>
