<svg width="45" height="45" viewBox="0 0 45 45" fill="none" xmlns="http://www.w3.org/2000/svg">
<ellipse cx="22.8799" cy="22.6942" rx="21.886" ry="21.886" fill="#273F3A"/>
<path d="M27.6448 29.9669V30.8334C27.6441 31.4077 27.4157 31.9584 27.0096 32.3645C26.6035 32.7706 26.0529 32.999 25.4785 32.9997H25.002C24.9021 33.4889 24.6362 33.9286 24.2494 34.2444C23.8626 34.5602 23.3786 34.7327 22.8793 34.7327C22.3799 34.7327 21.8959 34.5602 21.5091 34.2444C21.1223 33.9286 20.8565 33.4889 20.7566 32.9997H20.2796C19.7052 32.999 19.1546 32.7706 18.7485 32.3645C18.3424 31.9584 18.114 31.4077 18.1133 30.8334V29.9669C18.1137 29.6223 18.2508 29.292 18.4944 29.0483C18.7381 28.8046 19.0685 28.6676 19.4131 28.6672H26.345C26.6896 28.6676 27.02 28.8046 27.2637 29.0483C27.5073 29.292 27.6444 29.6223 27.6448 29.9669V29.9669ZM28.8758 11.1347C28.0422 10.338 27.0581 9.71567 25.9811 9.30402C24.904 8.89237 23.7557 8.69969 22.6033 8.73727C21.4508 8.77485 20.3175 9.04192 19.2695 9.52286C18.2216 10.0038 17.2801 10.6889 16.5002 11.5382C15.7202 12.3874 15.1175 13.3837 14.7274 14.4687C14.3372 15.5538 14.1674 16.7057 14.2278 17.8572C14.2883 19.0086 14.5778 20.1364 15.0794 21.1746C15.5811 22.2128 16.2848 23.1405 17.1494 23.9034C17.4543 24.1752 17.698 24.5087 17.8642 24.8819C18.0304 25.255 18.1153 25.6592 18.1133 26.0677C18.1137 26.4123 18.2508 26.7427 18.4944 26.9863C18.7381 27.23 19.0685 27.3671 19.4131 27.3674H26.345C26.6896 27.367 27.02 27.23 27.2636 26.9863C27.5073 26.7427 27.6444 26.4123 27.6448 26.0677C27.6433 25.6584 27.7289 25.2534 27.8958 24.8797C28.0627 24.5059 28.3071 24.1719 28.6128 23.8997C29.5116 23.1051 30.236 22.1328 30.7401 21.0442C31.2443 19.9556 31.5174 18.7743 31.5421 17.5749C31.5668 16.3755 31.3427 15.1839 30.8837 14.0755C30.4248 12.967 29.7412 11.9657 28.8758 11.1348V11.1347Z" fill="#FFFAF2"/>
<circle cx="27.8005" cy="8.62907" r="3.92057" fill="#CC704B" stroke="#273F3A" stroke-width="2"/>
</svg>
