<svg width="24" height="42" viewBox="0 0 24 42" fill="none" xmlns="http://www.w3.org/2000/svg">
<path d="M2.86901 39.8774C2.86901 39.049 3.54059 38.3774 4.36901 38.3774H13.3908C14.2192 38.3774 14.8908 39.049 14.8908 39.8774C14.8908 40.7059 14.2192 41.3774 13.3908 41.3774H4.36901C3.54059 41.3774 2.86901 40.7059 2.86901 39.8774Z" fill="#E9B145"/>
<circle cx="16.3141" cy="8.28432" r="6.43423" stroke="#273F3A" stroke-width="2"/>
<path d="M13.6448 28.5016V29.3681C13.6441 29.9424 13.4157 30.493 13.0096 30.8991C12.6035 31.3052 12.0529 31.5337 11.4785 31.5343H11.002C10.9021 32.0236 10.6362 32.4633 10.2494 32.7791C9.86261 33.0948 9.37861 33.2673 8.87927 33.2673C8.37993 33.2673 7.89593 33.0948 7.50913 32.7791C7.12233 32.4633 6.85649 32.0236 6.75658 31.5343H6.27957C5.70525 31.5337 5.15463 31.3052 4.74852 30.8991C4.34242 30.493 4.11398 29.9424 4.11334 29.3681V28.5016C4.11372 28.157 4.25078 27.8266 4.49445 27.583C4.73811 27.3393 5.06848 27.2022 5.41308 27.2019H12.345C12.6896 27.2022 13.02 27.3393 13.2637 27.583C13.5073 27.8266 13.6444 28.157 13.6448 28.5016ZM14.8758 9.66932C14.0422 8.87269 13.0581 8.25034 11.9811 7.83869C10.904 7.42704 9.75568 7.23436 8.60325 7.27194C7.45082 7.30952 6.31747 7.57659 5.26952 8.05753C4.22157 8.53847 3.28009 9.22361 2.50016 10.0729C1.72024 10.9221 1.11755 11.9184 0.727369 13.0034C0.337187 14.0884 0.167353 15.2404 0.227806 16.3918C0.28826 17.5433 0.577787 18.6711 1.07944 19.7093C1.58109 20.7475 2.2848 21.6752 3.14936 22.4381C3.45431 22.7099 3.69797 23.0434 3.86416 23.4165C4.03036 23.7897 4.1153 24.1939 4.11334 24.6024C4.11372 24.947 4.25078 25.2773 4.49445 25.521C4.73811 25.7647 5.06848 25.9017 5.41308 25.9021H12.345C12.6896 25.9017 13.02 25.7646 13.2636 25.521C13.5073 25.2773 13.6444 24.947 13.6448 24.6024C13.6433 24.1931 13.7289 23.7881 13.8958 23.4143C14.0627 23.0406 14.3071 22.7066 14.6128 22.4344C15.5116 21.6398 16.236 20.6675 16.7401 19.5789C17.2443 18.4903 17.5174 17.309 17.5421 16.1096C17.5668 14.9101 17.3427 13.7186 16.8837 12.6101C16.4248 11.5017 15.7412 10.5004 14.8758 9.66943V9.66932Z" fill="#E9B145"/>
</svg>
